<svg width="1080" height="1080" viewBox="0 0 1080 1080" fill="none" xmlns="http://www.w3.org/2000/svg">
<g clip-path="url(#clip0_1_2)">
<rect width="1080" height="1080" fill="#34C34B"/>
<path d="M66.124 829V164.335H244.582C287.679 164.335 325.009 172.833 356.573 189.829C388.744 206.218 413.631 229.588 431.234 259.938C448.837 289.681 457.639 324.887 457.639 365.556V626.869C457.639 667.538 448.837 703.048 431.234 733.398C413.631 763.748 388.744 787.421 356.573 804.417C325.009 820.806 287.679 829 244.582 829H66.124ZM156.263 748.876H244.582C282.823 748.876 312.869 737.95 334.721 716.098C356.573 694.246 367.5 664.503 367.5 626.869V365.556C367.5 327.922 356.573 298.482 334.721 277.237C312.869 255.385 282.823 244.459 244.582 244.459H156.263V748.876ZM428.17 829V803.305H483.271V697.672H433.88V671.977H511.535V803.305H563.21V829H428.17ZM494.691 644.284C488.22 644.284 483.081 642.666 479.274 639.431C475.468 636.005 473.564 631.437 473.564 625.727C473.564 619.827 475.468 615.164 479.274 611.738C483.081 608.312 488.22 606.599 494.691 606.599C501.162 606.599 506.301 608.312 510.108 611.738C513.914 615.164 515.818 619.827 515.818 625.727C515.818 631.437 513.914 636.005 510.108 639.431C506.301 642.666 501.162 644.284 494.691 644.284ZM560.814 829V671.977H588.793V701.954H589.364C590.696 691.486 594.979 683.397 602.211 677.687C609.444 671.977 619.056 669.122 631.046 669.122C646.653 669.122 659.12 674.071 668.446 683.968C677.773 693.865 682.436 707.188 682.436 723.938V829H654.172V727.078C654.172 716.42 651.317 708.235 645.607 702.525C639.897 696.625 632.093 693.675 622.196 693.675C611.918 693.675 603.829 696.815 597.929 703.096C592.029 709.187 589.078 717.942 589.078 729.362V829H560.814ZM690.603 829V803.305H745.704V697.672H696.313V671.977H773.968V803.305H825.643V829H690.603ZM757.124 644.284C750.653 644.284 745.514 642.666 741.707 639.431C737.901 636.005 735.997 631.437 735.997 625.727C735.997 619.827 737.901 615.164 741.707 611.738C745.514 608.312 750.653 606.599 757.124 606.599C763.595 606.599 768.734 608.312 772.541 611.738C776.347 615.164 778.251 619.827 778.251 625.727C778.251 631.437 776.347 636.005 772.541 639.431C768.734 642.666 763.595 644.284 757.124 644.284ZM822.962 829V801.592L909.467 697.386H825.246V671.977H941.443V699.385L853.51 803.591H944.583V829H822.962Z" fill="white"/>
</g>
<defs>
<clipPath id="clip0_1_2">
<rect width="1080" height="1080" fill="white"/>
</clipPath>
</defs>
</svg>
